<?xml version="1.0" encoding="UTF-8" standalone="no"?>
<!-- Created with Inkscape (http://www.inkscape.org/) -->

<svg
   width="1024"
   height="1024"
   viewBox="0 0 270.93333 270.93333"
   version="1.1"
   id="svg1"
   xml:space="preserve"
   inkscape:version="1.3.2 (091e20ef0f, 2023-11-25)"
   sodipodi:docname="app.svg"
   xmlns:inkscape="http://www.inkscape.org/namespaces/inkscape"
   xmlns:sodipodi="http://sodipodi.sourceforge.net/DTD/sodipodi-0.dtd"
   xmlns="http://www.w3.org/2000/svg"
   xmlns:svg="http://www.w3.org/2000/svg"><sodipodi:namedview
     id="namedview1"
     pagecolor="#ffffff"
     bordercolor="#666666"
     borderopacity="1.0"
     inkscape:showpageshadow="2"
     inkscape:pageopacity="0.0"
     inkscape:pagecheckerboard="0"
     inkscape:deskcolor="#d1d1d1"
     inkscape:document-units="mm"
     inkscape:zoom="0.59402227"
     inkscape:cx="476.41311"
     inkscape:cy="396.44978"
     inkscape:window-width="1920"
     inkscape:window-height="1131"
     inkscape:window-x="0"
     inkscape:window-y="0"
     inkscape:window-maximized="1"
     inkscape:current-layer="layer1" /><defs
     id="defs1"><style
       id="style1">.a{fill:#3ddc84;}</style></defs><g
     inkscape:label="Layer 1"
     inkscape:groupmode="layer"
     id="layer1"><g
       id="g2"
       transform="matrix(0.63076394,0,0,0.63076394,147.07518,136.60796)"><path
         fill="#efefef"
         d="m 169.11335,39.005964 c -1.5,-3.95 -5.1,-9.5 -10.2,-13.45 -3,-2.25 -6.4,-4.45 -11.2,-5.85 -5.2,-1.5 -11.6,-2 -19.4,-2 H 56.313345 c -7.85,0 -14.2,0.5 -19.35,2.05 -4.8,1.45 -8.35,3.6 -11.25,5.85 -5.1,3.9 -8.7,9.5 -10.25,13.45 -3.1,7.95 -3.15,16.95 -3.15,22.65 v 71.999996 c 0,5.7 0.05,14.7 3.15,22.7 1.55,3.95 5.15,9.5 10.25,13.45 2.95,2.25 6.45,4.45 11.25,5.85 5.15,1.5 11.5,2 19.35,2 h 72.000005 c 7.85,0 14.2,-0.5 19.35,-2.05 4.8,-1.45 8.35,-3.6 11.25,-5.85 5.1,-3.9 8.7,-9.5 10.25,-13.45 3.15,-7.95 3.15,-17 3.15,-22.7 V 61.655964 c 0,-5.7 -0.05,-14.7 -3.15,-22.7 z M 44.013345,127.70596 h -5.95 V 92.155964 h 5.95 z m -2.95,-41.549996 c -2,0 -3.7,-1.65 -3.7,-3.7 0,-2.05 1.65,-3.7 3.7,-3.7 2.05,0 3.75,1.65 3.75,3.7 -0.05,2.05 -1.7,3.7 -3.75,3.7 z m 35.75,42.449996 c -15.7,0 -25.6,-11.2 -25.6,-29.049996 0,-17.85 9.9,-29.1 25.6,-29.1 15.7,0 25.600005,11.25 25.600005,29.1 0,17.849996 -9.900005,29.049996 -25.600005,29.049996 z m 51.800005,0 c -11.8,0 -20.1,-6.5 -20.65,-16.2 h 5.35 c 0.6,6.75 6.95,11.35 15.8,11.35 8.45,0 14.5,-4.6 14.5,-10.95 0,-5.25 -3.65,-8.4 -12,-10.5 l -7,-1.8 c -10.45,-2.649996 -15.1,-7.049996 -15.1,-14.499996 0,-9.1 8.2,-15.6 19.3,-15.6 11,0 19,6.5 19.35,15.45 h -5.35 c -0.5,-6.35 -6.15,-10.6 -14.15,-10.6 -7.8,0 -13.6,4.35 -13.6,10.55 0,4.85 3.5,7.7 11.8,9.8 l 6.1,1.55 c 11.35,2.849996 16.1,7.199996 16.1,15.049996 0,9.9 -7.95,16.4 -20.45,16.4 z M 96.963345,99.555964 c 0,14.749996 -7.8,24.099996 -20.15,24.099996 -12.35,0 -20.1,-9.35 -20.1,-24.099996 0,-14.8 7.75,-24.15 20.1,-24.15 12.35,0 20.15,9.35 20.15,24.15 z"
         id="path2-5"
         style="fill:#000000" /></g><g
       id="g4"
       transform="matrix(6.0021364,0,0,6.0021364,76.681403,185.56641)"><circle
         cx="0"
         cy="0"
         r="2.05"
         fill="#61dafb"
         id="circle1" /><g
         stroke="#61dafb"
         stroke-width="1"
         fill="none"
         id="g3"><ellipse
           rx="11"
           ry="4.1999998"
           id="ellipse1"
           cx="0"
           cy="0" /><ellipse
           rx="11"
           ry="4.1999998"
           transform="rotate(60)"
           id="ellipse2"
           cx="0"
           cy="0" /><ellipse
           rx="11"
           ry="4.1999998"
           transform="rotate(120)"
           id="ellipse3"
           cx="0"
           cy="0" /></g></g><g
       id="g1"
       transform="matrix(0.69597431,0,0,0.69597431,-343.56371,295.24306)"><path
         class="a"
         d="m 742.17057,-289.9982 a 9.6,9.6 0 1 1 9.6,-9.6 9.6,9.6 0 0 1 -9.6,9.6 m -105.7,0 a 9.6,9.6 0 1 1 9.6,-9.6 9.6,9.6 0 0 1 -9.6,9.6 m 109.1,-57.6 19.2,-33.1 a 3.963,3.963 0 1 0 -6.9,-3.9 l -19.4,33.5 a 117.178,117.178 0 0 0 -49.1,-10.6 119.152,119.152 0 0 0 -49.2,10.5 l -19.4,-33.5 a 3.963,3.963 0 0 0 -6.9,3.9 l 19.1,33.1 a 113.107,113.107 0 0 0 -58.6,90.4 h 229.7 a 112.53,112.53 0 0 0 -58.5,-90.3"
         id="path2" /></g></g></svg>
